<svg width="10" height="7" viewBox="0 0 10 7" fill="none" xmlns="http://www.w3.org/2000/svg">
<path d="M4.71873 6.61485L0.116714 1.28575C0.0610591 1.22146 0.0231245 1.1395 0.00771153 1.05024C-0.00770147 0.960979 9.97996e-05 0.868429 0.0301285 0.784304C0.0601572 0.700179 0.111063 0.628261 0.176403 0.577652C0.241743 0.527043 0.31858 0.500019 0.397189 0.5L9.60281 0.5C9.68142 0.500019 9.75826 0.527043 9.8236 0.577652C9.88894 0.628261 9.93984 0.700179 9.96987 0.784304C9.9999 0.868429 10.0077 0.960979 9.99229 1.05024C9.97688 1.1395 9.93894 1.22146 9.88329 1.28575L5.28127 6.61485C5.24437 6.65769 5.20053 6.69168 5.15226 6.71487C5.104 6.73806 5.05226 6.75 5 6.75C4.94774 6.75 4.896 6.73806 4.84774 6.71487C4.79947 6.69168 4.75563 6.65769 4.71873 6.61485Z" fill="#676A7E"/>
</svg>
