<svg width="16" height="16" viewBox="0 0 16 16" fill="none" xmlns="http://www.w3.org/2000/svg">
<path fill-rule="evenodd" clip-rule="evenodd" d="M2.03741 7.07678C2.75126 6.82242 3.50245 6.48436 4.08173 5.99493C4.76973 5.41359 5.04953 4.66489 5.23743 3.87679C5.47866 2.86427 5.57505 1.7857 5.86756 0.771543C5.97587 0.394928 6.1843 0.252566 6.27374 0.189387C6.49979 0.0297969 6.72828 -0.0128614 6.94326 0.00313863C7.19803 0.0216002 7.54799 0.118004 7.77814 0.545081C7.81097 0.606209 7.85362 0.699342 7.88234 0.826932C7.90326 0.92047 7.9168 1.21298 7.93895 1.33359C7.99434 1.63062 8.0407 1.92765 8.08418 2.22632C8.229 3.22037 8.3123 4.06467 8.76973 4.9779C9.39045 6.21769 10.0124 6.97626 10.8559 7.31226C11.6715 7.63718 12.6467 7.57607 13.8926 7.3213C14.0112 7.29258 14.1285 7.26796 14.2446 7.24786C14.7939 7.15186 15.3191 7.51247 15.427 8.05975C15.5349 8.60663 15.1857 9.13954 14.6413 9.25975C14.5277 9.28477 14.4157 9.30857 14.3049 9.33031C12.6212 9.74713 10.6721 11.2347 9.53936 12.5373C9.19024 12.9389 8.67906 14.0618 8.15763 14.7781C7.77281 15.3065 7.34039 15.6548 6.97731 15.7779C6.73403 15.8608 6.52891 15.8481 6.35948 15.8062C6.11332 15.7455 5.90902 15.6122 5.7523 15.4C5.66697 15.2839 5.58777 15.1285 5.55003 14.9299C5.53198 14.8343 5.52994 14.5915 5.53035 14.4815C5.42409 14.116 5.29404 13.759 5.19927 13.3902C4.97322 12.5102 4.52972 11.9531 4.00295 11.2171C3.51024 10.5283 2.98102 10.0954 2.20523 9.75001C2.1043 9.72539 1.28994 9.526 1.00235 9.41154C0.58225 9.24375 0.382035 8.96272 0.309419 8.81133C0.185932 8.55451 0.173225 8.33011 0.197841 8.14304C0.234354 7.86693 0.358252 7.63063 0.578149 7.43986C0.714354 7.3213 0.917843 7.206 1.19025 7.1498C1.40072 7.1059 1.95905 7.08047 2.03741 7.07678ZM6.81485 5.64251C6.8526 5.72661 6.89281 5.81113 6.93547 5.89647C7.8446 7.71226 8.86121 8.72601 10.0969 9.21791L10.1383 9.23391C9.31168 9.84765 8.56336 10.5336 7.99146 11.1912C7.75597 11.462 7.44419 12.0245 7.10737 12.6013C6.80132 11.6064 6.30081 10.9032 5.67147 10.0232C5.19065 9.35166 4.68686 8.84623 4.06778 8.43433C4.54819 8.18776 5.00644 7.89894 5.40562 7.56171C6.07024 7.00007 6.50962 6.34938 6.81485 5.64251Z" fill="#7B7F96"/>
</svg>
