<svg width="10" height="8" viewBox="0 0 10 8" fill="none" xmlns="http://www.w3.org/2000/svg">
<path d="M9.37481 0.31543C9.20899 0.31543 9.04997 0.385967 8.93272 0.511523C8.81548 0.637079 8.74961 0.80737 8.74961 0.984933V3.66295C8.74961 3.84051 8.68374 4.0108 8.56649 4.13636C8.44925 4.26191 8.29023 4.33245 8.12442 4.33245H2.1288L2.94155 3.46879C3.05928 3.34272 3.12541 3.17173 3.12541 2.99344C3.12541 2.81515 3.05928 2.64417 2.94155 2.5181C2.82382 2.39203 2.66415 2.3212 2.49766 2.3212C2.33117 2.3212 2.1715 2.39203 2.05377 2.5181L0.178189 4.52661C0.121271 4.59028 0.0766538 4.66536 0.0468981 4.74754C-0.0156327 4.91054 -0.0156327 5.09337 0.0468981 5.25637C0.0766538 5.33855 0.121271 5.41363 0.178189 5.4773L2.05377 7.48581C2.11189 7.54856 2.18104 7.59837 2.25723 7.63236C2.33341 7.66635 2.41513 7.68385 2.49766 7.68385C2.58019 7.68385 2.66191 7.66635 2.7381 7.63236C2.81428 7.59837 2.88343 7.54856 2.94155 7.48581C3.00015 7.42357 3.04666 7.34953 3.0784 7.26794C3.11014 7.18636 3.12648 7.09885 3.12648 7.01047C3.12648 6.92208 3.11014 6.83458 3.0784 6.75299C3.04666 6.6714 3.00015 6.59736 2.94155 6.53512L2.1288 5.67146H8.12442C8.62185 5.67146 9.09891 5.45985 9.45065 5.08318C9.80239 4.70651 10 4.19564 10 3.66295V0.984933C10 0.80737 9.93413 0.637079 9.81688 0.511523C9.69964 0.385967 9.54062 0.31543 9.37481 0.31543Z" fill="white"/>
</svg>
