<svg width="12" height="10" viewBox="0 0 12 10" fill="none" xmlns="http://www.w3.org/2000/svg">
<path d="M10.2 1.57896H6.432L6.24 1.05264C6.11553 0.743816 5.88465 0.476592 5.57934 0.287991C5.27403 0.0993897 4.90941 -0.001251 4.536 1.17387e-05H1.8C1.32261 1.17387e-05 0.864773 0.166364 0.527208 0.462474C0.189642 0.758584 0 1.16019 0 1.57896V8.42105C0 8.83982 0.189642 9.24143 0.527208 9.53754C0.864773 9.83365 1.32261 10 1.8 10H10.2C10.6774 10 11.1352 9.83365 11.4728 9.53754C11.8104 9.24143 12 8.83982 12 8.42105V3.1579C12 2.73914 11.8104 2.33753 11.4728 2.04142C11.1352 1.74531 10.6774 1.57896 10.2 1.57896ZM10.8 8.42105C10.8 8.56064 10.7368 8.69451 10.6243 8.79322C10.5117 8.89192 10.3591 8.94737 10.2 8.94737H1.8C1.64087 8.94737 1.48826 8.89192 1.37574 8.79322C1.26321 8.69451 1.2 8.56064 1.2 8.42105V1.57896C1.2 1.43937 1.26321 1.3055 1.37574 1.2068C1.48826 1.10809 1.64087 1.05264 1.8 1.05264H4.536C4.66179 1.05236 4.78449 1.08676 4.88678 1.15098C4.98906 1.2152 5.06575 1.306 5.106 1.41054L5.43 2.27369C5.47025 2.37823 5.54694 2.46903 5.64922 2.53325C5.75151 2.59747 5.87421 2.63187 6 2.63159H10.2C10.3591 2.63159 10.5117 2.68704 10.6243 2.78574C10.7368 2.88444 10.8 3.01832 10.8 3.1579V8.42105Z" fill="white"/>
</svg>
