<svg width="12" height="12" viewBox="0 0 12 12" fill="none" xmlns="http://www.w3.org/2000/svg">
<path d="M7.23233 6.0999L11.5147 1.84914C11.7051 1.65876 11.8001 1.40507 11.8001 1.15122C11.8001 0.897515 11.6732 0.675403 11.5147 0.516751C11.1023 0.167841 10.4996 0.167841 10.1824 0.516751L5.90007 4.76751L1.64931 0.485143C1.45893 0.294762 1.20524 0.199707 0.951391 0.199707C0.697685 0.199707 0.475573 0.326628 0.316922 0.485143C0.158271 0.675525 0.0632158 0.897508 0.0632158 1.15136C0.0632158 1.43679 0.158407 1.65892 0.348653 1.81757L4.5678 6.09993L0.285437 10.3507C0.0950551 10.5411 0 10.7948 0 11.0486C0 11.3023 0.126921 11.5244 0.285437 11.6831C0.475818 11.8417 0.697801 11.9368 0.951649 11.9368C1.20536 11.9368 1.45921 11.8416 1.61786 11.6513L5.90023 7.4322L10.151 11.7146C10.3414 11.9049 10.5633 12 10.8172 12H10.8489C11.1026 12 11.3247 11.8731 11.4834 11.7146C11.8323 11.3339 11.8323 10.7312 11.5151 10.3823L7.23233 6.0999Z" fill="white"/>
</svg>
