<svg width="5" height="8" viewBox="0 0 5 8" fill="none" xmlns="http://www.w3.org/2000/svg">
<path d="M4.89188 4.22502L0.628598 7.90663C0.57717 7.95115 0.511601 7.9815 0.440192 7.99383C0.368783 8.00616 0.294743 7.99992 0.227443 7.9759C0.160143 7.95187 0.102609 7.91115 0.0621219 7.85888C0.0216351 7.80661 1.57356e-05 7.74514 0 7.68225L0 0.317752C1.57356e-05 0.254865 0.0216351 0.193394 0.0621219 0.141122C0.102609 0.08885 0.160143 0.0481262 0.227443 0.0241032C0.294743 8.01086e-05 0.368783 -0.00616074 0.440192 0.00616932C0.511601 0.0184999 0.57717 0.0488472 0.628598 0.0933714L4.89188 3.77498C4.92615 3.80451 4.95334 3.83958 4.9719 3.87819C4.99045 3.9168 5 3.9582 5 4C5 4.0418 4.99045 4.0832 4.9719 4.12181C4.95334 4.16042 4.92615 4.19549 4.89188 4.22502Z" fill="#7B7F96"/>
</svg>
