<svg width="32" height="32" viewBox="0 0 32 32" fill="none" xmlns="http://www.w3.org/2000/svg">
<path d="M24.2158 2.87598L29.5613 8.35869V8.35869C21.2271 13.4613 14.1149 20.3316 8.72694 28.4842L8.37922 29.0104L3.03378 23.5277L3.64488 23.0597C11.3007 17.1975 18.2092 10.419 24.2158 2.87598V2.87598Z" fill="#171F4D"/>
<path opacity="0.7" d="M28.9121 7.32275L31.5102 14.5258V14.5258C21.8116 15.7231 12.4942 19.0352 4.21601 24.2281L3.68177 24.5633L1.08369 17.3602L1.83364 17.187C11.2289 15.0176 20.3228 11.7048 28.9121 7.32275V7.32275Z" fill="#171F4D"/>
<path opacity="0.4" d="M31.126 12.2607L31.0503 19.9176V19.9176C21.5427 17.6591 11.6551 17.5156 2.08598 19.4973L1.46843 19.6252L1.54413 11.9683L2.3074 12.0674C11.8696 13.3089 21.548 13.3739 31.126 12.2607V12.2607Z" fill="#171F4D"/>
<path d="M18.8936 0.88623L25.8726 4.03683V4.03683C19.979 11.8317 15.8687 20.8256 13.832 30.3832L13.7006 31L6.72147 27.8494L7.11935 27.1905C12.104 18.9364 16.0582 10.1024 18.8936 0.88623V0.88623Z" fill="#99780F"/>
<path opacity="0.7" d="M13.2666 0.967285L20.9129 1.37772V1.37772C18.2408 10.7775 17.6651 20.6493 19.2264 30.2959L19.3272 30.9185L11.6809 30.5081L11.8133 29.7498C13.4718 20.2511 13.9599 10.5848 13.2666 0.967285V0.967285Z" fill="#99780F"/>
<path opacity="0.4" d="M8.44336 2.8374L15.7883 0.672735V0.672735C16.4061 10.4254 19.1576 19.9234 23.8486 28.4961L24.1513 29.0493L16.8064 31.214L16.6782 30.4551C15.0718 20.9473 12.3063 11.6723 8.44336 2.8374V2.8374Z" fill="#99780F"/>
<path d="M4.19035 6.46398C1.83602 9.40691 0.636886 13.108 0.818081 16.8724C0.999275 20.6368 2.54833 24.2057 5.17443 26.9089C7.80053 29.6121 11.323 31.2637 15.0806 31.5537C18.8382 31.8438 22.5725 30.7522 25.5823 28.484L24.6623 27.2633C21.9499 29.3074 18.5846 30.2911 15.1983 30.0297C11.8119 29.7684 8.63743 28.2799 6.27079 25.8438C3.90415 23.4076 2.50814 20.1914 2.34485 16.7989C2.18156 13.4064 3.26221 10.071 5.38393 7.41885L4.19035 6.46398Z" fill="#4461E0"/>
<path d="M28.3516 25.5355C30.706 22.5926 31.9051 18.8915 31.7239 15.1271C31.5427 11.3627 29.9937 7.79385 27.3676 5.09065C24.7415 2.38745 21.219 0.7358 17.4614 0.445779C13.7038 0.155758 9.96951 1.24732 6.95971 3.51552L7.87967 4.73627C10.5921 2.69217 13.9574 1.70845 17.3437 1.96982C20.7301 2.23119 23.9045 3.71965 26.2712 6.15577C28.6378 8.59188 30.0338 11.8081 30.1971 15.2006C30.3604 18.5931 29.2797 21.9285 27.158 24.5806L28.3516 25.5355Z" fill="#E6C250"/>
</svg>
