<svg width="12" height="12" viewBox="0 0 12 12" fill="none" xmlns="http://www.w3.org/2000/svg">
<path fill-rule="evenodd" clip-rule="evenodd" d="M6 0.75C6.17405 0.75 6.34097 0.81914 6.46404 0.942211C6.58711 1.06528 6.65625 1.2322 6.65625 1.40625V5.34375H10.5938C10.7678 5.34375 10.9347 5.41289 11.0578 5.53596C11.1809 5.65903 11.25 5.82595 11.25 6C11.25 6.17405 11.1809 6.34097 11.0578 6.46404C10.9347 6.58711 10.7678 6.65625 10.5938 6.65625H6.65625V10.5938C6.65625 10.7678 6.58711 10.9347 6.46404 11.0578C6.34097 11.1809 6.17405 11.25 6 11.25C5.82595 11.25 5.65903 11.1809 5.53596 11.0578C5.41289 10.9347 5.34375 10.7678 5.34375 10.5938V6.65625H1.40625C1.2322 6.65625 1.06528 6.58711 0.942211 6.46404C0.81914 6.34097 0.75 6.17405 0.75 6C0.75 5.82595 0.81914 5.65903 0.942211 5.53596C1.06528 5.41289 1.2322 5.34375 1.40625 5.34375H5.34375V1.40625C5.34375 1.2322 5.41289 1.06528 5.53596 0.942211C5.65903 0.81914 5.82595 0.75 6 0.75Z" fill="white"/>
</svg>
