<?xml version="1.0" encoding="utf-8"?><svg viewBox="0 0 32 32" xmlns="http://www.w3.org/2000/svg" xmlns:xlink="http://www.w3.org/1999/xlink"><style>:root>svg{display:none}:root>svg:target{display:block}</style><svg fill="none" viewBox="0 0 32 32" id="logo" xmlns="http://www.w3.org/2000/svg"><path d="M24.216 2.876l5.345 5.483A66.753 66.753 0 008.727 28.484l-.348.526-5.345-5.482.61-.468A118.01 118.01 0 0024.217 2.876z" fill="#171F4D"/><path opacity=".7" d="M28.912 7.323l2.598 7.203a66.754 66.754 0 00-27.294 9.702l-.534.335-2.598-7.203.75-.173a118.006 118.006 0 0027.078-9.864z" fill="#171F4D"/><path opacity=".4" d="M31.126 12.26l-.076 7.658a66.753 66.753 0 00-28.964-.42l-.618.127.076-7.657.763.1a118.012 118.012 0 0028.819.193z" fill="#171F4D"/><path d="M18.894.886l6.979 3.15a66.753 66.753 0 00-12.041 26.347l-.131.617-6.98-3.15.398-.66A118.012 118.012 0 0018.894.887z" fill="#99780F"/><path opacity=".7" d="M13.267.967l7.646.41a66.753 66.753 0 00-1.687 28.919l.101.623-7.646-.41.132-.76A118.01 118.01 0 0013.267.968z" fill="#99780F"/><path opacity=".4" d="M8.443 2.837L15.788.673a66.752 66.752 0 008.06 27.823l.303.553-7.345 2.165-.128-.759A118.013 118.013 0 008.443 2.837z" fill="#99780F"/><path d="M4.19 6.464a15.471 15.471 0 0021.392 22.02l-.92-1.22A13.942 13.942 0 015.384 7.418L4.19 6.464z" fill="#4461E0"/><path d="M28.352 25.535A15.47 15.47 0 006.96 3.515l.92 1.221a13.942 13.942 0 0119.278 19.845l1.194.954z" fill="#E6C250"/></svg><svg fill="none" viewBox="0 0 14 14" id="profile-arrow" xmlns="http://www.w3.org/2000/svg"><path d="M12.273 9.34h-3.02a.667.667 0 100 1.333h1.6A5.333 5.333 0 011.666 7 .667.667 0 00.333 7a6.667 6.667 0 0011.253 4.82V13a.667.667 0 001.334 0v-3a.667.667 0 00-.647-.66zM7 .333A6.667 6.667 0 002.413 2.18V1A.667.667 0 001.08 1v3a.667.667 0 00.666.666h3a.667.667 0 000-1.333h-1.6A5.333 5.333 0 0112.333 7a.666.666 0 101.333 0A6.667 6.667 0 007 .333z" fill="#fff"/></svg><svg fill="none" viewBox="0 0 24 24" id="profile-user" xmlns="http://www.w3.org/2000/svg"><path d="M20.858 20.1c.259-.286.503-.584.731-.895l.077-.088c.207-.295.403-.59.589-.896.04-.052.076-.106.109-.163.16-.3.312-.594.458-.885 0-.088.076-.164.12-.24.12-.285.24-.58.338-.875l.12-.295c.087-.284.164-.568.24-.863 0-.12.066-.24.087-.35.066-.305.11-.6.153-.906 0-.12 0-.23.055-.35.044-.424.066-.85.065-1.277 0-3.187-1.264-6.244-3.515-8.497a11.991 11.991 0 00-16.97 0A12.025 12.025 0 000 12.017c0 .427.021.853.066 1.278 0 .12 0 .23.054.35 0 .305.087.6.153.906 0 .11.065.23.087.35.076.295.153.579.24.863l.12.295c.098.295.218.59.338.874l.12.24c.146.299.299.594.459.885l.109.164c.185.306.381.6.589.896l.076.087c.228.31.472.61.73.896.275.3.567.585.873.852a11.902 11.902 0 0015.906 0c.306-.267.598-.552.872-.852h.066zM12 6.008a3.825 3.825 0 010 7.647 3.825 3.825 0 010-7.647zM4.702 18.571a9.812 9.812 0 0114.596 0 9.747 9.747 0 01-14.595 0z" fill="#474B59"/></svg></svg>