<?xml version="1.0" encoding="utf-8"?><svg viewBox="0 0 32 32" xmlns="http://www.w3.org/2000/svg" xmlns:xlink="http://www.w3.org/1999/xlink"><style>:root>svg{display:none}:root>svg:target{display:block}</style><svg fill="none" viewBox="0 0 10 7" id="arrow-filling" xmlns="http://www.w3.org/2000/svg"><path d="M4.719 6.615L.117 1.285a.486.486 0 01-.11-.235A.528.528 0 01.03.784.452.452 0 01.176.578.36.36 0 01.397.5h9.206a.36.36 0 01.22.078c.066.05.117.122.147.206.03.084.038.177.022.266a.486.486 0 01-.109.236L5.281 6.615a.399.399 0 01-.129.1.35.35 0 01-.304 0 .399.399 0 01-.13-.1z" fill="#676A7E"/></svg><svg fill="none" viewBox="0 0 10 8" id="enter" xmlns="http://www.w3.org/2000/svg"><path d="M9.375.315a.605.605 0 00-.442.197.694.694 0 00-.183.473v2.678a.694.694 0 01-.184.473.605.605 0 01-.442.196H2.13l.813-.863a.697.697 0 00.183-.476.697.697 0 00-.183-.475.607.607 0 00-.444-.197.607.607 0 00-.444.197L.178 4.527a.714.714 0 000 .95l1.876 2.009a.625.625 0 00.203.146.59.59 0 00.685-.146.71.71 0 000-.95l-.813-.865h5.995c.498 0 .975-.211 1.327-.588.351-.376.549-.887.549-1.42V.985a.694.694 0 00-.183-.473.605.605 0 00-.442-.197z" fill="#fff"/></svg><svg fill="none" viewBox="0 0 12 10" id="folder" xmlns="http://www.w3.org/2000/svg"><path d="M10.2 1.579H6.432l-.192-.526a1.62 1.62 0 00-.66-.765A1.979 1.979 0 004.535 0H1.8C1.323 0 .865.166.527.462A1.487 1.487 0 000 1.58v6.842c0 .419.19.82.527 1.117.338.296.796.462 1.273.462h8.4c.477 0 .935-.166 1.273-.462C11.81 9.24 12 8.84 12 8.42V3.158c0-.419-.19-.82-.527-1.117A1.935 1.935 0 0010.2 1.58zm.6 6.842c0 .14-.063.274-.176.372a.645.645 0 01-.424.154H1.8a.645.645 0 01-.424-.154.496.496 0 01-.176-.372V1.579c0-.14.063-.273.176-.372a.645.645 0 01.424-.154h2.736a.66.66 0 01.35.098.538.538 0 01.22.26l.324.863c.04.104.117.195.22.26a.66.66 0 00.35.098h4.2c.16 0 .312.055.424.154a.496.496 0 01.176.372V8.42z" fill="#fff"/></svg><svg fill="none" viewBox="0 0 16 16" id="google" xmlns="http://www.w3.org/2000/svg"><g clip-path="url(#dclip0_332_1028)"><path d="M15.844 8.184c0-.544-.044-1.09-.138-1.625H8.16v3.08h4.321a3.703 3.703 0 01-1.599 2.431v2h2.578c1.514-1.394 2.384-3.452 2.384-5.886z" fill="#4285F4"/><path d="M8.16 16c2.157 0 3.977-.708 5.303-1.93l-2.578-2c-.717.489-1.643.765-2.722.765-2.087 0-3.857-1.408-4.492-3.301h-2.66v2.06a8.001 8.001 0 007.149 4.407z" fill="#34A853"/><path d="M3.669 9.533a4.792 4.792 0 010-3.063V4.41H1.01a8.007 8.007 0 000 7.184l2.658-2.06z" fill="#FBBC04"/><path d="M8.16 3.166a4.347 4.347 0 013.069 1.2l2.284-2.284A7.689 7.689 0 008.16 0 7.998 7.998 0 001.01 4.41l2.658 2.06C4.3 4.575 6.073 3.167 8.16 3.167z" fill="#EA4335"/></g><defs><clipPath id="dclip0_332_1028"><path fill="#fff" d="M0 0h16v16H0z"/></clipPath></defs></svg><svg fill="none" viewBox="0 0 5 8" id="items-arrow" xmlns="http://www.w3.org/2000/svg"><path d="M4.892 4.225L.629 7.907a.389.389 0 01-.189.087.422.422 0 01-.213-.018.362.362 0 01-.165-.117A.288.288 0 010 7.682V.318C0 .255.022.193.062.14A.362.362 0 01.227.024.422.422 0 01.44.006.389.389 0 01.63.093l4.263 3.682a.32.32 0 01.08.103.28.28 0 010 .244.32.32 0 01-.08.103z" fill="#7B7F96"/></svg><svg fill="none" viewBox="0 0 32 32" id="logo" xmlns="http://www.w3.org/2000/svg"><path d="M24.216 2.876l5.345 5.483A66.753 66.753 0 008.727 28.484l-.348.526-5.345-5.482.61-.468A118.01 118.01 0 0024.217 2.876z" fill="#171F4D"/><path opacity=".7" d="M28.912 7.323l2.598 7.203a66.754 66.754 0 00-27.294 9.702l-.534.335-2.598-7.203.75-.173a118.006 118.006 0 0027.078-9.864z" fill="#171F4D"/><path opacity=".4" d="M31.126 12.26l-.076 7.658a66.753 66.753 0 00-28.964-.42l-.618.127.076-7.657.763.1a118.012 118.012 0 0028.819.193z" fill="#171F4D"/><path d="M18.894.886l6.979 3.15a66.753 66.753 0 00-12.041 26.347l-.131.617-6.98-3.15.398-.66A118.012 118.012 0 0018.894.887z" fill="#99780F"/><path opacity=".7" d="M13.267.967l7.646.41a66.753 66.753 0 00-1.687 28.919l.101.623-7.646-.41.132-.76A118.01 118.01 0 0013.267.968z" fill="#99780F"/><path opacity=".4" d="M8.443 2.837L15.788.673a66.752 66.752 0 008.06 27.823l.303.553-7.345 2.165-.128-.759A118.013 118.013 0 008.443 2.837z" fill="#99780F"/><path d="M4.19 6.464a15.471 15.471 0 0021.392 22.02l-.92-1.22A13.942 13.942 0 015.384 7.418L4.19 6.464z" fill="#4461E0"/><path d="M28.352 25.535A15.47 15.47 0 006.96 3.515l.92 1.221a13.942 13.942 0 0119.278 19.845l1.194.954z" fill="#E6C250"/></svg><svg fill="none" viewBox="0 0 12 12" id="plus" xmlns="http://www.w3.org/2000/svg"><path fill-rule="evenodd" clip-rule="evenodd" d="M6 .75a.656.656 0 01.656.656v3.938h3.938a.656.656 0 010 1.312H6.656v3.938a.656.656 0 01-1.312 0V6.656H1.406a.656.656 0 110-1.312h3.938V1.406A.656.656 0 016 .75z" fill="#fff"/></svg><svg fill="none" viewBox="0 0 14 14" id="profile-arrow" xmlns="http://www.w3.org/2000/svg"><path d="M12.273 9.34h-3.02a.667.667 0 100 1.333h1.6A5.333 5.333 0 011.666 7 .667.667 0 00.333 7a6.667 6.667 0 0011.253 4.82V13a.667.667 0 001.334 0v-3a.667.667 0 00-.647-.66zM7 .333A6.667 6.667 0 002.413 2.18V1A.667.667 0 001.08 1v3a.667.667 0 00.666.666h3a.667.667 0 000-1.333h-1.6A5.333 5.333 0 0112.333 7a.666.666 0 101.333 0A6.667 6.667 0 007 .333z" fill="#fff"/></svg><svg fill="none" viewBox="0 0 24 24" id="profile-user" xmlns="http://www.w3.org/2000/svg"><path d="M20.858 20.1c.259-.286.503-.584.731-.895l.077-.088c.207-.295.403-.59.589-.896.04-.052.076-.106.109-.163.16-.3.312-.594.458-.885 0-.088.076-.164.12-.24.12-.285.24-.58.338-.875l.12-.295c.087-.284.164-.568.24-.863 0-.12.066-.24.087-.35.066-.305.11-.6.153-.906 0-.12 0-.23.055-.35.044-.424.066-.85.065-1.277 0-3.187-1.264-6.244-3.515-8.497a11.991 11.991 0 00-16.97 0A12.025 12.025 0 000 12.017c0 .427.021.853.066 1.278 0 .12 0 .23.054.35 0 .305.087.6.153.906 0 .11.065.23.087.35.076.295.153.579.24.863l.12.295c.098.295.218.59.338.874l.12.24c.146.299.299.594.459.885l.109.164c.185.306.381.6.589.896l.076.087c.228.31.472.61.73.896.275.3.567.585.873.852a11.902 11.902 0 0015.906 0c.306-.267.598-.552.872-.852h.066zM12 6.008a3.825 3.825 0 010 7.647 3.825 3.825 0 010-7.647zM4.702 18.571a9.812 9.812 0 0114.596 0 9.747 9.747 0 01-14.595 0z" fill="#474B59"/></svg></svg>